<svg xmlns="http://www.w3.org/2000/svg" xmlns:xlink="http://www.w3.org/1999/xlink" version="1.1" x="0px" y="0px" viewBox="0 0 100 125" style="enable-background:new 0 0 100 100;" xml:space="preserve"><g><path d="M75,19H24c-7.7,0-14,6.3-14,14v27c0,7.3,5.6,13.3,12.7,13.9l6,12.9c0.3,0.6,0.9,1.1,1.6,1.1c0.1,0,0.1,0,0.2,0   c0.6,0,1.2-0.3,1.6-0.8L42.2,74H75c7.7,0,14-6.3,14-14V33C89,25.3,82.7,19,75,19z M85,60c0,5.5-4.5,10-10,10H41.2   c-0.6,0-1.2,0.3-1.6,0.8l-8.7,11.4l-5.1-11c-0.3-0.7-1-1.2-1.8-1.2c-5.5,0-10-4.5-10-10V33c0-5.5,4.5-10,10-10h51   c5.5,0,10,4.5,10,10V60z"/><path d="M28,38h24c1.1,0,2-0.9,2-2s-0.9-2-2-2H28c-1.1,0-2,0.9-2,2S26.9,38,28,38z"/><path d="M72,45H28c-1.1,0-2,0.9-2,2s0.9,2,2,2h44c1.1,0,2-0.9,2-2S73.1,45,72,45z"/><path d="M72,56H28c-1.1,0-2,0.9-2,2s0.9,2,2,2h44c1.1,0,2-0.9,2-2S73.1,56,72,56z"/></g></svg>