<svg xmlns="http://www.w3.org/2000/svg" xmlns:xlink="http://www.w3.org/1999/xlink" version="1.1" x="0px" y="0px" viewBox="0 0 120 150" style="enable-background:new 0 0 120 120;" xml:space="preserve"><g><path d="M45.4,64c-1-1.1-1.9-2.3-2.6-3.6c-0.9,0.1-1.8,0.2-2.8,0.2c-3.7,0-7.2-1.1-10.1-2.9c-7.5,1.9-13,8.6-13,16.6v9.3h15   C32.2,74.8,37.6,67.3,45.4,64z"/><path d="M40,55.6c0.3,0,0.6,0,0.9,0c-0.4-1.5-0.6-3-0.6-4.6c0-8,4.9-15,11.8-18c-2.6-4-7.1-6.6-12.2-6.6c-8.1,0-14.6,6.6-14.6,14.6   S31.9,55.6,40,55.6z"/><path d="M90.1,57.7c-3,1.8-6.4,2.9-10.1,2.9c-0.9,0-1.9-0.1-2.8-0.2c-0.7,1.3-1.6,2.5-2.6,3.6c7.7,3.3,13.2,10.9,13.5,19.7h15v-9.3   C103.1,66.3,97.6,59.6,90.1,57.7z"/><path d="M79.6,51c0,1.6-0.2,3.1-0.6,4.6c0.3,0,0.6,0,0.9,0c8.1,0,14.6-6.6,14.6-14.6S88.1,26.3,80,26.3c-5.1,0-9.6,2.6-12.2,6.6   C74.7,36,79.6,42.9,79.6,51z"/><path d="M83.1,84.4c0-8-5.5-14.8-13-16.6c-3,1.8-6.4,2.9-10.1,2.9c-3.7,0-7.2-1.1-10.1-2.9c-7.5,1.9-13,8.6-13,16.6v9.3h46.2V84.4z   "/><path d="M60,36.3c-8.1,0-14.6,6.6-14.6,14.6c0,8.1,6.6,14.6,14.6,14.6c8.1,0,14.6-6.6,14.6-14.6C74.6,42.9,68.1,36.3,60,36.3z"/></g></svg>