<svg xmlns:dc="http://purl.org/dc/elements/1.1/" xmlns:cc="http://creativecommons.org/ns#" xmlns:rdf="http://www.w3.org/1999/02/22-rdf-syntax-ns#" xmlns:svg="http://www.w3.org/2000/svg" xmlns="http://www.w3.org/2000/svg" xmlns:sodipodi="http://sodipodi.sourceforge.net/DTD/sodipodi-0.dtd" xmlns:inkscape="http://www.inkscape.org/namespaces/inkscape" version="1.1" x="0px" y="0px" viewBox="0 0 100 125"><g transform="translate(0,-952.36218)"><path style="color:#000000;enable-background:accumulate;" d="m 50,963.36217 c 22.6486,0 41.000001,14.97041 41.000001,33.43751 0,10.70452 -6.4027,19.44242 -16.000001,25.56252 l 8,19 -22,-12 c -2.990699,0.5659 -7.7979,0.8438 -11,0.8438 -22.6486,0 -41.0000015,-14.9392 -41.0000015,-33.40631 0,-18.46711 18.3514035,-33.43751 41.0000025,-33.43751 z m 22,28.00001 c -2.7614,0 -5,2.2386 -5,5 0,2.7614 2.2386,5.00002 5,5.00002 2.761401,0 5,-2.23862 5,-5.00002 0,-2.7614 -2.238599,-5 -5,-5 z m -22,0 c -2.761398,0 -5,2.2386 -5,5 0,2.7614 2.238602,5.00002 5,5.00002 2.7614,0 5,-2.23862 5,-5.00002 0,-2.7614 -2.2386,-5 -5,-5 z m -22,0 c -2.761398,0 -5.000003,2.2386 -5.000003,5 0,2.7614 2.238603,5.00002 5.000003,5.00002 2.7614,0 5,-2.23862 5,-5.00002 0,-2.7614 -2.2386,-5 -5,-5 z" fill="#000000" stroke="none" marker="none" visibility="visible" display="inline" overflow="visible"/></g></svg>