<svg xmlns="http://www.w3.org/2000/svg" xmlns:xlink="http://www.w3.org/1999/xlink" version="1.1" x="0px" y="0px" viewBox="0 0 1024 1280" style="enable-background:new 0 0 1024 1024;" xml:space="preserve"><g><path d="M280.15,275.05c-5.51-43.5,7.96-87.31,36.95-120.21c28.99-32.89,70.76-51.76,114.6-51.76c41.04,0,79.54,16.03,108.41,45.14   c33.37,33.64,49.09,79.87,43.13,126.83l-10.48,82.66c-5.09,40.19-27.18,76.41-60.59,99.36c-23.77,16.33-51.6,24.96-80.47,24.96   c-28.88,0-56.7-8.63-80.48-24.96c-33.41-22.95-55.5-59.17-60.59-99.36L280.15,275.05z"/><path d="M713.31,537.48c-20.35,0-39.97,3.19-58.39,9.09c-0.94-0.32-1.88-0.61-2.83-0.9l-128.24-38.88   c-5.77-1.75-12.03,0.12-15.88,4.76l-76.28,91.62l-76.27-91.62c-3.86-4.64-10.11-6.51-15.88-4.76l-128.25,38.88   c-26.9,8.17-49.98,24.42-66.72,47.01c-16.74,22.59-25.59,49.39-25.59,77.51v202.88c0,8.28,6.71,15,15,15H606.1   c30.62,20.73,67.53,32.85,107.21,32.85c105.71,0,191.71-86.01,191.71-191.72S819.02,537.48,713.31,537.48z M713.31,880.92   c-33.83,0-65.11-11.13-90.37-29.92c-37.21-27.68-61.35-71.97-61.35-121.8c0-65.77,42.07-121.9,100.71-142.9   c15.95-5.71,33.12-8.82,51.01-8.82c83.65,0,151.71,68.06,151.71,151.72C865.02,812.86,796.96,880.92,713.31,880.92z"/><polygon points="806.96,709.2 806.96,749.2 733.31,749.2 733.31,822.85 693.31,822.85 693.31,749.2 619.66,749.2 619.66,709.2    693.31,709.2 693.31,635.55 733.31,635.55 733.31,709.2  "/></g></svg>