<svg xmlns="http://www.w3.org/2000/svg" version="1.1" viewBox="-5.0 -10.0 110.0 135.0">
 <g>
  <path d="m86.965 74.418-6.2695-10.359c-1.6055-2.6562-2.4531-5.6914-2.4531-8.7891l-0.003907-16.992c0-13.379-10.914-24.227-24.391-24.273 0.23438-0.65625 0.29688-1.3906-0.10938-2.2148-0.55469-1.125-1.7656-1.7891-3.0273-1.7891h-1.4219c-1.2617 0-2.4727 0.66406-3.0273 1.7891-0.40625 0.82031-0.34375 1.5586-0.10938 2.2148-13.48 0.046875-24.391 10.898-24.391 24.273v16.992c0 3.0938-0.84766 6.1328-2.4531 8.7891l-6.2695 10.359c-1.4883 2.457 0.29297 5.582 3.1836 5.582h67.555c2.8906 0 4.6719-3.125 3.1875-5.582z"/>
  <path d="m50 90c4.8789 0 8.9492-3.4375 9.8828-8h-19.766c0.93359 4.5625 5.0039 8 9.8828 8z"/>
 </g>
</svg>