<svg xmlns="http://www.w3.org/2000/svg" data-name="Layer 1" viewBox="0 0 64 80" x="0px" y="0px"><circle cx="32" cy="21" r="13"/><path d="M55.693,50.153c-1.173-7.278-5.495-13.297-11.447-16.809-.719-.424-1.624-.381-2.276,.142-2.736,2.193-6.199,3.515-9.971,3.515s-7.235-1.321-9.971-3.515c-.653-.523-1.559-.564-2.28-.139-5.945,3.509-10.263,9.521-11.44,16.79-.124,.766-.089,1.561,.144,2.301,.692,2.205,2.654,3.562,4.785,3.562H50.675c.873,0,1.75-.184,2.507-.618,1.909-1.093,2.841-3.179,2.511-5.229Z"/><text x="0" y="79" fill="#000000" font-size="5px" font-weight="bold" font-family="'Helvetica Neue', Helvetica, Arial-Unicode, Arial, Sans-serif">Created by Glyphy</text><text x="0" y="84" fill="#000000" font-size="5px" font-weight="bold" font-family="'Helvetica Neue', Helvetica, Arial-Unicode, Arial, Sans-serif">from the Noun Project</text></svg>