<svg xmlns:dc="http://purl.org/dc/elements/1.1/" xmlns:cc="http://creativecommons.org/ns#" xmlns:rdf="http://www.w3.org/1999/02/22-rdf-syntax-ns#" xmlns:svg="http://www.w3.org/2000/svg" xmlns="http://www.w3.org/2000/svg" xmlns:sodipodi="http://sodipodi.sourceforge.net/DTD/sodipodi-0.dtd" xmlns:inkscape="http://www.inkscape.org/namespaces/inkscape" version="1.1" x="0px" y="0px" viewBox="0 0 100 125"><g transform="translate(0,-952.36218)"><path style="text-indent:0;text-transform:none;direction:ltr;block-progression:tb;baseline-shift:baseline;color:#000000;enable-background:accumulate;" d="m 50,986.36218 c -1.6568,0 -3,1.3432 -3,3 l 0,10 -10,0 c -1.6568,0 -3,1.34312 -3,3.00002 0,1.6568 1.3432,3 3,3 l 10,0 0,10 c 0,1.6569 1.3432,3 3,3 1.6569,0 3,-1.3431 3,-3 l 0,-10 10,0 c 1.6568,0 3,-1.3432 3,-3 0,-1.6569 -1.3432,-3.00002 -3,-3.00002 l -10,0 0,-10 c 0,-1.6568 -1.3431,-3 -3,-3 z" fill="#000000" fill-opacity="1" marker="none" visibility="visible" display="inline" overflow="visible"/></g></svg>